<?xml version="1.0" encoding="UTF-8"?>
<!DOCTYPE svg PUBLIC "-//W3C//DTD SVG 1.1//EN" "http://www.w3.org/Graphics/SVG/1.1/DTD/svg11.dtd">
<!-- Creator: CorelDRAW 2019 (64-Bit) -->
<svg xmlns="http://www.w3.org/2000/svg" xml:space="preserve" width="25.3998mm" height="25.3998mm" version="1.1" style="shape-rendering:geometricPrecision; text-rendering:geometricPrecision; image-rendering:optimizeQuality; fill-rule:evenodd; clip-rule:evenodd"
viewBox="0 0 2539.98 2539.98"
 xmlns:xlink="http://www.w3.org/1999/xlink">
 <defs>
  <style type="text/css">
   <![CDATA[
    .str0 {stroke:#028200;stroke-width:211.67;stroke-miterlimit:22.9256}
    .fil1 {fill:none}
    .fil0 {fill:#2B2A29}
   ]]>
  </style>
 </defs>
 <g id="Слой_x0020_1">
  <metadata id="CorelCorpID_0Corel-Layer"/>
  <path class="fil0" d="M408.54 1799.99c7.16,-53.49 34.49,-416.67 38.21,-431.26 1.24,-4.87 0.66,-2.85 2.33,-5.37 -3.29,-21.38 6.4,-91.13 8.61,-117.1 4.94,-58.03 30.2,-314.87 30.26,-349.58l23.65 -269.18c16.31,-5.1 36.1,-5.46 55.75,-5.91l182.61 0.81 3.54 155.16c0.83,20.76 0.41,38.7 2.89,59.35 3.04,25.26 11.02,25.51 19.57,39.92l10.6 6.86c14.56,3.26 16.96,7.11 36.4,5.92 19.86,-3.63 39.09,-18.75 45.17,-34.6 9.5,-24.76 -8.12,-195.82 6.13,-232.13 6.23,-15.88 637.48,-1.66 711.38,-1.66l0.84 221c4.23,5.65 5.09,14.1 9.8,20.79 3.32,4.7 9.35,10.61 13.24,13.89 12.04,10.16 24.68,12.97 44.78,12.71l21.76 -3.67 14.58 -8.61c1.86,-6.63 7.08,-13.38 9.91,-23.75 12.65,-46.4 8.36,-181.47 8.36,-232.36l238.23 0c0.49,47.59 23.31,205.54 19.03,233.41 3.02,4.41 2.18,1.22 3.31,9.79 0.03,16.53 4.04,31.72 1.65,47.29 1.24,5.63 2.14,-6.1 3.93,19.53 0.49,7.08 1.22,13.01 1.61,20.02 3.36,49.97 8.85,100.91 13.06,151.32 2.17,25.91 15.26,133.79 11.42,150.53 4.21,6.72 4.85,27.58 5.18,35.65 1.34,14.92 5.56,34.38 2.26,48.72 1.79,2.28 2.32,-0.97 3.07,8.37l16.54 191.54c2.83,27.21 17.3,177.65 14.9,193.25 1.18,5.37 2.36,-5.72 3.85,19.64 0.42,7.2 1.18,12.8 1.94,19.93l14.54 173.72c4.11,61.21 20.28,213 2.96,262.89 -7.47,21.49 -15.06,27 -28.5,41.13 -12.94,13.61 -18.66,20.83 -36.3,33.39 -15.51,11.05 -68.51,43.5 -88.38,47.81 -13.39,6.36 -1114.67,2.33 -1308.62,2.33 -20.02,0 -47.63,3.81 -63.42,-4.09 -46.37,-23.19 -79.52,-34.17 -116.92,-76.66 -56.48,-64.15 -43.09,-111.53 -35.8,-210.03 3.68,-49.83 20.03,-205.85 20.09,-240.71zm499.06 -1444.31c12.02,-37.08 51.16,-87.94 73.29,-110.09 30.35,-30.39 64.41,-51.88 108.91,-72.48 84.89,-39.29 190.18,-40.5 277.01,-1.59l14.02 9.21c17.44,1.21 68,39.78 80.3,50.4 72.03,62.19 124.51,162.83 124.51,266.72l-711.84 0.1c1.35,-41.12 9.94,-108.75 33.8,-142.27zm347.54 -332.53l-55.1 0c-38.36,15.25 -120.14,-7.5 -271.38,108.3 -7.58,5.8 -20.94,17.23 -26.25,23.3 -8.69,9.94 -14.85,13.85 -23.66,23.35 -34.99,37.73 -68.25,98.09 -88.95,146.76 -4.2,9.87 -8.32,25.29 -13.16,33.76 -10.27,43.95 -20.62,91.45 -25.63,139.33 -57.91,0 -115.81,0.05 -173.72,-0.01 -27.72,-0.02 -57.54,0 -84.41,1 -49.2,1.82 -50.86,-1.97 -83.25,24.22 -7.15,5.78 -7.07,5.08 -8.83,13.56l-24.52 275.58c-2.48,29.37 -5.02,59.35 -8.05,88.94 -1.21,11.79 -4.11,78.61 -10.15,87.12 3.39,22.05 -6.77,92.27 -8.87,119.3 -2.89,37.29 -10.08,82.76 -10.15,119.07 -2.04,15.23 -3.44,31.88 -4.61,47.22 -0.59,7.84 -1.48,15.16 -2.03,22.65 -0.94,12.97 0.56,15.23 -4.12,21.81 3.48,19.93 -9.49,132.28 -12.46,160.57 -2.85,27.02 -4.64,53.26 -7.16,80.05 -2.32,24.65 -6.8,55.18 -6.85,79.65l-7.46 84.38c-1.42,9.39 0.64,4.25 -3.29,9.78 3.17,20.65 -7.24,111.1 -10,138.24 -7.88,77.25 -17.56,205.55 -17.21,281.29 0.26,55.63 7.32,82.54 28.6,121.12 33.6,60.97 89.98,111.01 155.43,142.17 31.13,14.82 70.11,32.04 114.46,34.39 23.29,1.24 134.58,1.04 144.57,5.08l1045.72 0c15.57,-6.57 142.72,-1.43 181.71,-10.45 81.68,-18.89 184.42,-86.13 224.5,-157.47 32.42,-57.71 38.18,-77.19 36.82,-159.64 -0.27,-72.87 -7.91,-146.39 -13.02,-218.41 -2.39,-33.68 -20.77,-196.55 -16.55,-214.96 -1.78,-2.27 -2.31,0.97 -3.07,-8.37 -0.06,-32.98 -6.19,-76.03 -9.33,-109.4 -3.47,-36.95 -5.8,-72.65 -9.61,-109.86 -7.48,-73.06 -11.67,-145.65 -19.44,-218.66 -7.77,-73 -11.68,-146.08 -19.73,-218.86 -3.97,-35.9 -6.06,-72.47 -9.81,-109.09 -2.42,-23.6 -11.08,-91.38 -8.18,-110.28 -4.43,-6.68 -3.14,-10.4 -4.04,-21.81 -3.09,-38.89 -20.27,-234.79 -24.42,-245.87 -14.75,-39.4 -45.15,-36.51 -54.12,-43.21 -16.47,2.54 -288.12,-0.53 -294.27,-2.83 -11.53,-72.56 -16.07,-129.98 -43.82,-189.42 -44.78,-95.92 -133.02,-191.47 -228,-235.96 -98.7,-46.22 -167.41,-41.49 -183.13,-47.43z"/>
  <path class="fil1 str0" d="M842.75 1468.95c429.45,1050.48 412.32,179.78 867.51,-324.74"/>
 </g>
</svg>
