<?xml version="1.0" encoding="UTF-8"?>
<!DOCTYPE svg PUBLIC "-//W3C//DTD SVG 1.1//EN" "http://www.w3.org/Graphics/SVG/1.1/DTD/svg11.dtd">
<!-- Creator: CorelDRAW 2019 (64-Bit) -->
<svg xmlns="http://www.w3.org/2000/svg" xml:space="preserve" width="84px" height="30px" version="1.1" style="shape-rendering:geometricPrecision; text-rendering:geometricPrecision; image-rendering:optimizeQuality; fill-rule:evenodd; clip-rule:evenodd"
viewBox="0 0 84 30"
 xmlns:xlink="http://www.w3.org/1999/xlink">
 <defs>
  <style type="text/css">
   <![CDATA[
    .fil0 {fill:black}
   ]]>
  </style>
 </defs>
 <g id="Слой_x0020_1">
  <metadata id="CorelCorpID_0Corel-Layer"/>
  <g id="_1590043554112">
   <path class="fil0" d="M63.67 23.2c0,-1.56 0.46,-3.89 2.22,-3.89 1.1,0 1.99,-0.15 2.8,1.09 0.55,0.83 1.66,6.41 -2.38,6.41 -1.9,0 -2.64,-1.7 -2.64,-3.61zm20 3.19l0 3.47 -10.28 0c-0.69,0 -0.41,-2.16 -0.41,-3.47l-0.95 1.41c-1.02,1.28 -2.95,2.2 -4.75,2.2 -5.92,0 -5.8,-2.07 -6.94,-2.92 -1.17,1.75 -2.98,2.92 -5.28,2.92l-0.12 0c-2.42,0 -3.91,-0.09 -5.72,-1.67 -1.95,-1.71 -1.94,-3.93 -1.94,-6.11 0,-3.67 2.91,-6.25 6.81,-6.25 4.97,0 5.76,2.6 6.38,3.06 0.21,-0.88 1.47,-1.85 2.22,-2.23 2.8,-1.43 7.49,-1.03 9.32,1.39l0.97 1.53 0 -3.47 4.3 0 0 10.14 6.39 0zm-32.22 -3.33c0,-1.49 0.53,-3.75 2.22,-3.75 1.01,0 2.01,-0.14 2.76,0.99 0.62,0.92 1.71,6.51 -2.34,6.51 -1.96,0 -2.64,-1.79 -2.64,-3.75z"/>
   <path class="fil0" d="M31.72 29.45c0,0.32 0.1,0.41 0.42,0.41l3.47 0c0.32,0 0.42,-0.09 0.42,-0.41l0 -5.14 4.44 0 0 5.14c0,0.32 0.1,0.41 0.42,0.41l3.47 0c0.32,0 0.42,-0.09 0.42,-0.41l0 -13.2 -4.31 0 0 4.72 -4.44 0 0 -4.72 -4.31 0 0 13.2z"/>
   <path class="fil0" d="M6.86 5.69l-1.39 0 0 -2.64 2.22 0c0.91,0 1.53,0.36 1.53,1.26 0,1.14 -1.19,1.38 -2.36,1.38zm-5.56 8.06l4.17 0 0 -5.42c2.12,0 2.08,1.53 3.5,3.87 0.32,0.52 0.53,1.03 0.81,1.55l4.86 0c-0.6,-1.12 -1.97,-3.98 -2.68,-4.82 -0.9,-1.07 -1.02,-0.83 -1.49,-1.15 4.38,-1.02 4.13,-7.5 -0.97,-7.5l-8.2 0 0 13.47z"/>
   <path class="fil0" d="M42.28 4.03c0,4.82 7.64,3.49 7.64,5.83 0,2.05 -3.97,1.97 -4.03,-0.83 -1.51,0 -2.5,0.14 -4.03,0.14 0,5.88 7.91,5.47 10.34,3.81 2.42,-1.65 3.11,-6.06 -1.22,-7.51 -0.87,-0.3 -1.62,-0.51 -2.48,-0.72 -0.77,-0.19 -2.19,-0.24 -2.19,-1.14 0,-1.13 0.91,-0.97 1.8,-0.97 0.93,0 1.46,0.79 1.53,1.67 1.22,0 1.85,-0.15 3.07,-0.13 0.77,0.01 1.49,0.09 0.48,-1.89 -1.1,-2.15 -3.39,-2.28 -5.41,-2.29l-0.54 0c-2.56,0.02 -4.96,1.52 -4.96,4.03z"/>
   <path class="fil0" d="M8.53 25.97c0,1.56 -3.91,2.18 -4.17,-0.97 -1.33,0 -2.78,0.17 -4.03,0.28 0,1.52 0.82,2.73 1.63,3.51 0.77,0.74 2.21,1.12 3.71,1.21l1.59 0c0.95,-0.06 1.83,-0.22 2.46,-0.47 3.17,-1.24 4.93,-6.43 -0.79,-8.26 -2.28,-0.73 -4.15,-0.53 -4.15,-1.82 0,-1.16 3.28,-1.37 3.33,0.83 1.54,0 2.54,-0.14 4.03,-0.14 0,-5.13 -7.96,-4.86 -10.18,-2.82 -1.02,0.95 -1.49,2.74 -0.8,4.21 0.61,1.32 1.99,1.88 3.46,2.38 0.67,0.22 2.9,0.67 3.38,1.06 0.19,0.16 0.53,0.71 0.53,1z"/>
   <path class="fil0" d="M21.86 30l0.26 0c1.77,0 3.3,-0.05 4.64,-1.35 0.76,-0.74 1.74,-1.99 1.77,-3.37l-3.61 -1.11c-0.42,0.87 -0.41,2.64 -2.78,2.64 -2.04,0 -2.5,-1.85 -2.5,-3.89 0,-3.89 2.79,-4.39 4.27,-3.16 0.49,0.4 0.58,0.81 0.87,1.35 1.18,-0.27 2.43,-0.56 3.61,-0.83 -0.02,-0.96 -0.92,-2.19 -1.61,-2.83 -2.36,-2.2 -7.39,-1.86 -9.61,0.36 -2.12,2.11 -2.58,6.93 -0.17,10.11 0.94,1.24 2.67,2.08 4.86,2.08z"/>
  </g>
 </g>
</svg>
